<svg width="20" height="20" viewBox="0 0 20 20" fill="none" xmlns="http://www.w3.org/2000/svg">
<g clip-path="url(#clip0_7683_14)">
<path d="M0.333313 1.97667L0.333313 14.69C0.333313 15.78 1.21998 16.6667 2.30998 16.6667H4.99998V18.0233C4.99998 19.1133 5.88665 20 6.97631 20H14.0233C15.1133 20 16 19.1133 16 18.0233V16H19.3333C19.471 16 19.5946 15.9153 19.6443 15.7867C19.6593 15.7477 19.6666 15.707 19.6666 15.6667C19.6666 15.5747 19.6283 15.4843 19.5576 15.42L16 12.186L16 5.31C16 4.22 15.1133 3.33333 14.0233 3.33333H11.3333V1.97667C11.3333 0.886665 10.4466 0 9.35665 0H2.30998C1.21998 0 0.333313 0.886665 0.333313 1.97667ZM14.0233 4C14.7456 4 15.3333 4.58767 15.3333 5.31L15.3333 12.3333C15.3333 12.4273 15.373 12.517 15.4423 12.58L18.4713 15.3333H15.6666C15.4826 15.3333 15.3333 15.4823 15.3333 15.6667V18.0233C15.3333 18.7457 14.7456 19.3333 14.0233 19.3333H6.97631C6.25431 19.3333 5.66665 18.7457 5.66665 18.0233V16.3333L5.66665 5.31C5.66665 5.039 5.74931 4.78733 5.89065 4.578C6.12631 4.22967 6.52498 4 6.97665 4H11H14.0233ZM9.35665 0.666666C10.079 0.666666 10.6666 1.25433 10.6666 1.97667V3.33333H6.97665C6.09131 3.33333 5.33998 3.91867 5.08931 4.72267C5.06998 4.78467 5.05365 4.84767 5.04065 4.912C5.01398 5.04067 4.99998 5.17367 4.99998 5.31L4.99998 16H2.30998C1.58765 16 0.99998 15.4123 0.99998 14.69L0.99998 1.97667C0.99998 1.25433 1.58765 0.666666 2.30998 0.666666H9.35665Z" fill="white"/>
<path d="M9.00498 16V11.3333C9.00498 11.149 8.85565 11 8.67165 11C8.48765 11 8.33832 11.149 8.33832 11.3333V16C8.33832 16.1843 8.48765 16.3333 8.67165 16.3333C8.85565 16.3333 9.00498 16.1843 9.00498 16Z" fill="white"/>
<path d="M10.3383 7V16C10.3383 16.1843 10.4877 16.3333 10.6717 16.3333C10.8557 16.3333 11.005 16.1843 11.005 16V7C11.005 6.81567 10.8557 6.66667 10.6717 6.66667C10.4877 6.66667 10.3383 6.81567 10.3383 7Z" fill="white"/>
<path d="M12.3383 7V16C12.3383 16.1843 12.4877 16.3333 12.6717 16.3333C12.8557 16.3333 13.005 16.1843 13.005 16V7C13.005 6.81567 12.8557 6.66667 12.6717 6.66667C12.4877 6.66667 12.3383 6.81567 12.3383 7Z" fill="white"/>
</g>
<defs>
<clipPath id="clip0_7683_14">
<rect width="20" height="20" fill="white"/>
</clipPath>
</defs>
</svg>
